{"title":"Carlito's Way 1993 DVDRiP XviD-Deemu","uid":6002151,"size":703176885,"categoryP":"video","categoryS":"movies","magnet":"?xt=urn:btih:2d3e227c3f9fe2e2d13c4b5b3136f7f607f58d2f&amp;dn=Carlito%5C%27s+Way+1993+DVDRiP+XviD-Deemu&amp;tr=udp%3A%2F%2Ftracker.openbittorrent.com%3A80&amp;tr=udp%3A%2F%2Fopen.demonii.com%3A1337&amp;tr=udp%3A%2F%2Ftracker.coppersurfer.tk%3A6969&amp;tr=udp%3A%2F%2Fexodus.desync.com%3A6969","seeders":0,"leechers":1,"uploader":"treacherous_hawk","files":4,"time":1291208792,"description":"Cover:\n=================================================================================== &lt;a href=&quot;\nhttp://img684.imageshack.us/img684/7100/carlitoswayr1retailcase.jpg&quot; rel=&quot;nofollow&quot; target=&quot;_NEW&quot;&gt;\nhttp://img684.imageshack.us/img684/7100/carlitoswayr1retailcase.jpg&lt;/a&gt;\n===================================================================================\n\nStoryline:\n===================================================================================\nA Puerto Rican ex-con pledges to stay away from his former drug dealing ways but finds himself being dragged back by his past connections and the naive machinations of his lawyer and best friend. Hoping to raise enough money to get away from New York, Carlito Brigante takes on the job of running a nightclub, renews an affair with a dancer but old associates and old instincts suck him back into a world of violence and mistrust.\n===================================================================================\n\nVideo Specs:\n===================================================================================\nCodec ID                         : XVID\nCodec ID/Hint                    : XviD\nDuration                         : 2h 18mn\nBit rate                         : 529 Kbps\nWidth                            : 720 pixels\nHeight                           : 320 pixels\nDisplay aspect ratio             : 2.25:1\nFrame rate                       : 25.000 fps\nColor space                      : YUV\nChroma subsampling               : 4:2:0\nBit depth                        : 8 bits\nScan type                        : Progressive\nBits/(Pixel*Frame)               : 0.092\nStream size                      : 522 MiB (80%)\n===================================================================================\n\nAudio Specs:\n==================================================================================\nFormat                           : MPEG Audio\nFormat version                   : Version 1\nFormat profile                   : Layer 3\nMode                             : Joint stereo\nMode extension                   : MS Stereo\nCodec ID                         : 55\nCodec ID/Hint                    : MP3\nDuration                         : 2h 18mn\nBit rate mode                    : Variable\nBit rate                         : 117 Kbps\nMinimum bit rate                 : 32.0 Kbps\nChannel(s)                       : 2 channels\nSampling rate                    : 48.0 KHz\nStream size                      : 116 MiB (18%)\nAlignment                        : Aligned on interleaves\nInterleave, duration             : 24 ms (0.60 video frame)\nInterleave, preload duration     : 157 ms\n===================================================================================\n\nScreens:\n=================================================================================== &lt;a href=&quot;\nhttp://img542.imageshack.us/img542/3198/vlcsnap2010120117h22m59.png&quot; rel=&quot;nofollow&quot; target=&quot;_NEW&quot;&gt;\nhttp://img542.imageshack.us/img542/3198/vlcsnap2010120117h22m59.png&lt;/a&gt; &lt;a href=&quot;\nhttp://img843.imageshack.us/img843/6996/vlcsnap2010120117h23m16.png&quot; rel=&quot;nofollow&quot; target=&quot;_NEW&quot;&gt;\nhttp://img843.imageshack.us/img843/6996/vlcsnap2010120117h23m16.png&lt;/a&gt; &lt;a href=&quot;\nhttp://img255.imageshack.us/img255/9820/vlcsnap2010120117h23m23.png&quot; rel=&quot;nofollow&quot; target=&quot;_NEW&quot;&gt;\nhttp://img255.imageshack.us/img255/9820/vlcsnap2010120117h23m23.png&lt;/a&gt; &lt;a href=&quot;\nhttp://img602.imageshack.us/img602/4016/vlcsnap2010120117h23m42.png&quot; rel=&quot;nofollow&quot; target=&quot;_NEW&quot;&gt;\nhttp://img602.imageshack.us/img602/4016/vlcsnap2010120117h23m42.png&lt;/a&gt; &lt;a href=&quot;\nhttp://img522.imageshack.us/img522/2878/vlcsnap2010120117h23m51.png&quot; rel=&quot;nofollow&quot; target=&quot;_NEW&quot;&gt;\nhttp://img522.imageshack.us/img522/2878/vlcsnap2010120117h23m51.png&lt;/a&gt; &lt;a href=&quot;\nhttp://img443.imageshack.us/img443/7582/vlcsnap2010120117h24m00.png&quot; rel=&quot;nofollow&quot; target=&quot;_NEW&quot;&gt;\nhttp://img443.imageshack.us/img443/7582/vlcsnap2010120117h24m00.png&lt;/a&gt; &lt;a href=&quot;\nhttp://img406.imageshack.us/img406/1056/vlcsnap2010120117h24m09.png&quot; rel=&quot;nofollow&quot; target=&quot;_NEW&quot;&gt;\nhttp://img406.imageshack.us/img406/1056/vlcsnap2010120117h24m09.png&lt;/a&gt; &lt;a href=&quot;\nhttp://img146.imageshack.us/img146/3596/vlcsnap2010120117h25m23.png&quot; rel=&quot;nofollow&quot; target=&quot;_NEW&quot;&gt;\nhttp://img146.imageshack.us/img146/3596/vlcsnap2010120117h25m23.png&lt;/a&gt; &lt;a href=&quot;\nhttp://img528.imageshack.us/img528/2552/vlcsnap2010120117h25m34.png&quot; rel=&quot;nofollow&quot; target=&quot;_NEW&quot;&gt;\nhttp://img528.imageshack.us/img528/2552/vlcsnap2010120117h25m34.png&lt;/a&gt;\n===================================================================================\nEnjoy!!","torrent":{"xt":"urn:btih:2d3e227c3f9fe2e2d13c4b5b3136f7f607f58d2f","amp;dn":"Carlito%5C%27s+Way+1993+DVDRiP+XviD-Deemu","amp;tr":["udp%3A%2F%2Ftracker.openbittorrent.com%3A80","udp%3A%2F%2Fopen.demonii.com%3A1337","udp%3A%2F%2Ftracker.coppersurfer.tk%3A6969","udp%3A%2F%2Fexodus.desync.com%3A6969"],"infoHash":"2d3e227c3f9fe2e2d13c4b5b3136f7f607f58d2f","infoHashBuffer":{"type":"Buffer","data":[45,62,34,124,63,159,226,226,209,60,75,91,49,54,247,246,7,245,141,47]},"announce":[],"urlList":[]}}